<?xml version="1.0" standalone="no"?>
<!DOCTYPE svg PUBLIC "-//W3C//DTD SVG 20010904//EN"
 "http://www.w3.org/TR/2001/REC-SVG-20010904/DTD/svg10.dtd">
<svg version="1.0" xmlns="http://www.w3.org/2000/svg"
 width="700.000000pt" height="700.000000pt" viewBox="0 0 700.000000 700.000000"
 preserveAspectRatio="xMidYMid meet">
<metadata>
Created by potrace 1.14, written by Peter Selinger 2001-2017
</metadata>
<g transform="translate(0.000000,700.000000) scale(0.100000,-0.100000)"
fill="#000000" stroke="none">
<path d="M3185 6989 c-1393 -129 -2583 -1078 -3015 -2404 -255 -785 -223
-1653 90 -2414 389 -947 1184 -1685 2155 -2001 519 -169 1089 -214 1630 -129
1454 228 2618 1354 2894 2799 54 287 75 650 52 935 -126 1573 -1280 2862
-2831 3164 -210 41 -330 52 -605 56 -148 2 -315 -1 -370 -6z m1624 -1004 c191
-61 344 -215 407 -409 31 -95 38 -244 15 -336 -43 -178 -171 -340 -331 -419
-188 -92 -383 -94 -568 -4 -83 41 -195 139 -243 213 -18 27 -35 48 -38 46 -3
-2 -249 -137 -546 -301 -297 -163 -550 -303 -562 -311 l-21 -13 28 -53 c42
-78 62 -160 69 -276 l6 -104 587 -349 588 -349 47 34 c146 103 339 141 513
100 175 -41 339 -172 419 -334 124 -251 74 -541 -127 -736 -115 -113 -271
-176 -437 -176 -224 -1 -417 105 -545 301 l-16 23 -566 -312 -566 -312 29 -58
c176 -352 -12 -783 -390 -894 -285 -84 -609 59 -738 324 -52 108 -67 172 -67
285 0 112 15 176 66 284 32 66 57 101 117 161 173 173 418 232 646 155 75 -25
196 -94 224 -128 7 -9 18 -17 24 -17 6 0 271 143 589 317 l578 318 -7 50 c-5
28 -8 95 -8 150 1 116 26 209 82 302 27 46 31 59 21 69 -18 17 -1094 654
-1104 654 -5 0 -17 -19 -27 -43 -27 -67 -112 -172 -180 -223 -120 -91 -245
-134 -388 -134 -178 0 -321 60 -450 189 -305 304 -223 810 163 1007 89 45 172
64 287 64 150 0 265 -39 386 -130 l63 -48 579 319 578 319 -2 32 c-1 18 -5 71
-9 118 -18 244 126 492 347 598 46 22 109 45 139 51 30 6 64 13 75 15 45 11
188 -5 264 -29z"/>
</g>
</svg>
